<svg width="24" height="24" viewBox="0 0 24 24" fill="none" xmlns="http://www.w3.org/2000/svg" data-v-9ccf9512=""><path d="M4.125 8.8648C4.125 4.59333 7.6601 1.125 12 1.125C16.3399 1.125 19.875 4.59333 19.875 8.8648C19.875 10.5107 19.5009 12.2592 18.7689 14.06C18.2011 15.4599 17.4128 16.8999 16.4244 18.3481C15.6945 19.4161 14.9171 20.4011 14.1403 21.282C13.6582 21.8288 13.2272 22.2758 13.036 22.4559C12.7553 22.7279 12.3837 22.875 12 22.875C11.614 22.875 11.2393 22.7269 10.966 22.4587C10.7533 22.2557 10.3387 21.8242 9.85811 21.278C9.08129 20.395 8.30417 19.4086 7.57439 18.3395C6.5875 16.8928 5.79879 15.452 5.23027 14.0531C4.4988 12.2512 4.125 10.5056 4.125 8.8648Z" stroke="#292929" stroke-width="1.5"></path> <mask id="mask0_3_3292" maskUnits="userSpaceOnUse" x="3" y="0" width="18" height="24" style="mask-type:alpha"><path d="M4.125 8.8648C4.125 4.59333 7.6601 1.125 12 1.125C16.3399 1.125 19.875 4.59333 19.875 8.8648C19.875 10.5107 19.5009 12.2592 18.7689 14.06C18.2011 15.4599 17.4128 16.8999 16.4244 18.3481C15.6945 19.4161 14.9171 20.4011 14.1403 21.282C13.6582 21.8288 13.2272 22.2758 13.036 22.4559C12.7553 22.7279 12.3837 22.875 12 22.875C11.614 22.875 11.2393 22.7269 10.966 22.4587C10.7533 22.2557 10.3387 21.8242 9.85811 21.278C9.08129 20.395 8.30417 19.4086 7.57439 18.3395C6.5875 16.8928 5.79879 15.452 5.23027 14.0531C4.4988 12.2512 4.125 10.5056 4.125 8.8648Z" fill="white" stroke="white" stroke-width="1.5"></path></mask> <g mask="url(#mask0_3_3292)"><ellipse cx="12" cy="9.13281" rx="3.75" ry="3.75" stroke="#292929" stroke-width="1.5"></ellipse></g></svg>